<?xml version="1.0" encoding="UTF-8"?>
<svg xmlns="http://www.w3.org/2000/svg" xmlns:xlink="http://www.w3.org/1999/xlink" width="60pt" height="60pt" viewBox="0 0 60 60" version="1.1">
<g id="surface1">
<path style=" stroke:none;fill-rule:nonzero;fill:rgb(64.705882%,61.568627%,64.705882%);fill-opacity:1;" d="M 30 56.980469 C 27.996094 56.980469 26.375 55.359375 26.375 53.355469 L 26.375 52.082031 L 33.625 52.082031 L 33.625 53.355469 C 33.625 55.359375 32.003906 56.980469 30 56.980469 Z M 30 56.980469 "/>
<path style=" stroke:none;fill-rule:nonzero;fill:rgb(88.627451%,87.45098%,88.627451%);fill-opacity:1;" d="M 33.636719 52.777344 L 26.363281 52.777344 C 25.449219 52.777344 24.707031 52.035156 24.707031 51.121094 L 24.707031 41.710938 L 35.292969 41.710938 L 35.292969 51.121094 C 35.292969 52.035156 34.550781 52.777344 33.636719 52.777344 Z M 33.636719 52.777344 "/>
<path style=" stroke:none;fill-rule:nonzero;fill:rgb(82.745098%,80.784314%,83.529412%);fill-opacity:1;" d="M 30.464844 41.710938 L 30.464844 46.238281 C 30.464844 48.515625 28.617188 50.363281 26.339844 50.363281 L 24.707031 50.363281 L 24.707031 51.121094 C 24.707031 52.035156 25.449219 52.777344 26.363281 52.777344 L 33.636719 52.777344 C 34.550781 52.777344 35.292969 52.035156 35.292969 51.121094 L 35.292969 41.710938 Z M 30.464844 41.710938 "/>
<path style=" stroke:none;fill-rule:nonzero;fill:rgb(97.647059%,96.470588%,97.647059%);fill-opacity:1;" d="M 35.558594 46.925781 L 24.441406 46.925781 C 23.941406 46.925781 23.539062 46.519531 23.539062 46.019531 C 23.539062 45.519531 23.941406 45.113281 24.441406 45.113281 L 35.558594 45.113281 C 36.058594 45.113281 36.460938 45.519531 36.460938 46.019531 C 36.460938 46.519531 36.058594 46.925781 35.558594 46.925781 Z M 35.558594 46.925781 "/>
<path style=" stroke:none;fill-rule:nonzero;fill:rgb(97.647059%,96.470588%,97.647059%);fill-opacity:1;" d="M 35.558594 50.023438 L 24.441406 50.023438 C 23.941406 50.023438 23.539062 49.617188 23.539062 49.117188 C 23.539062 48.617188 23.941406 48.210938 24.441406 48.210938 L 35.558594 48.210938 C 36.058594 48.210938 36.460938 48.617188 36.460938 49.117188 C 36.460938 49.617188 36.058594 50.023438 35.558594 50.023438 Z M 35.558594 50.023438 "/>
<path style=" stroke:none;fill-rule:nonzero;fill:rgb(100%,87.843137%,49.019608%);fill-opacity:1;" d="M 46.734375 19.753906 C 46.734375 10.511719 39.242188 3.019531 30 3.019531 C 20.757812 3.019531 13.265625 10.511719 13.265625 19.753906 C 13.265625 24.5625 15.292969 28.734375 18.542969 32.199219 C 20.839844 34.648438 22.261719 37.765625 22.648438 41.070312 C 22.773438 42.121094 23.648438 42.921875 24.707031 42.921875 L 35.292969 42.921875 C 36.351562 42.921875 37.226562 42.121094 37.347656 41.070312 C 37.738281 37.765625 39.160156 34.648438 41.457031 32.199219 C 44.707031 28.734375 46.734375 24.5625 46.734375 19.753906 Z M 46.734375 19.753906 "/>
<path style=" stroke:none;fill-rule:nonzero;fill:rgb(100%,81.568627%,39.215686%);fill-opacity:1;" d="M 34.964844 3.765625 C 39.167969 6.808594 41.90625 11.753906 41.90625 17.339844 C 41.90625 22.148438 39.875 26.320312 36.628906 29.785156 C 35.191406 31.320312 34.09375 33.113281 33.382812 35.050781 C 32.167969 38.347656 28.996094 40.503906 25.484375 40.503906 L 22.574219 40.503906 C 22.601562 40.691406 22.628906 40.878906 22.648438 41.070312 C 22.773438 42.121094 23.648438 42.921875 24.707031 42.921875 L 35.292969 42.921875 C 36.351562 42.921875 37.226562 42.121094 37.347656 41.070312 C 37.738281 37.765625 39.160156 34.648438 41.457031 32.199219 C 44.707031 28.734375 46.734375 24.5625 46.734375 19.753906 C 46.734375 12.238281 41.78125 5.882812 34.964844 3.765625 Z M 34.964844 3.765625 "/>
<path style=" stroke:none;fill-rule:nonzero;fill:rgb(100%,95.294118%,74.901961%);fill-opacity:1;" d="M 28.757812 25.386719 L 26.109375 32.808594 C 25.984375 33.15625 26.238281 33.515625 26.605469 33.515625 L 28.296875 33.515625 C 28.476562 33.515625 28.644531 33.425781 28.742188 33.273438 L 35.917969 22 C 36.246094 21.484375 35.875 20.8125 35.265625 20.8125 L 32.554688 20.8125 C 32.019531 20.8125 31.648438 20.28125 31.828125 19.78125 L 34.085938 13.453125 C 34.265625 12.949219 33.894531 12.421875 33.359375 12.421875 L 28.71875 12.421875 C 28.390625 12.421875 28.101562 12.625 27.992188 12.933594 L 24.003906 24.09375 C 23.824219 24.597656 24.199219 25.125 24.734375 25.125 L 28.574219 25.125 C 28.710938 25.125 28.804688 25.261719 28.757812 25.386719 Z M 28.757812 25.386719 "/>
<path style=" stroke:none;fill-rule:nonzero;fill:rgb(100%,76.078431%,31.372549%);fill-opacity:1;" d="M 50.3125 19.683594 C 50.3125 18.683594 51.121094 17.871094 52.121094 17.871094 L 58.1875 17.871094 C 59.1875 17.871094 60 18.683594 60 19.683594 C 60 20.683594 59.1875 21.492188 58.1875 21.492188 L 52.121094 21.492188 C 51.121094 21.492188 50.3125 20.683594 50.3125 19.683594 Z M 50.3125 19.683594 "/>
<path style=" stroke:none;fill-rule:nonzero;fill:rgb(100%,76.078431%,31.372549%);fill-opacity:1;" d="M 48.117188 8.347656 C 48.117188 7.722656 48.445312 7.113281 49.023438 6.777344 L 54.277344 3.746094 C 55.144531 3.246094 56.253906 3.542969 56.753906 4.40625 C 57.253906 5.273438 56.957031 6.382812 56.089844 6.882812 L 50.835938 9.914062 C 49.96875 10.414062 48.863281 10.117188 48.363281 9.25 C 48.195312 8.964844 48.117188 8.65625 48.117188 8.347656 Z M 48.117188 8.347656 "/>
<path style=" stroke:none;fill-rule:nonzero;fill:rgb(100%,76.078431%,31.372549%);fill-opacity:1;" d="M 48.117188 31.015625 C 48.117188 30.710938 48.195312 30.398438 48.363281 30.113281 C 48.863281 29.246094 49.96875 28.949219 50.835938 29.449219 L 56.089844 32.484375 C 56.957031 32.984375 57.253906 34.089844 56.753906 34.957031 C 56.253906 35.824219 55.144531 36.121094 54.277344 35.621094 L 49.023438 32.585938 C 48.445312 32.25 48.117188 31.644531 48.117188 31.015625 Z M 48.117188 31.015625 "/>
<path style=" stroke:none;fill-rule:nonzero;fill:rgb(100%,76.078431%,31.372549%);fill-opacity:1;" d="M 9.6875 19.683594 C 9.6875 18.683594 8.878906 17.871094 7.878906 17.871094 L 1.8125 17.871094 C 0.8125 17.871094 0 18.683594 0 19.683594 C 0 20.683594 0.8125 21.492188 1.8125 21.492188 L 7.878906 21.492188 C 8.878906 21.492188 9.6875 20.683594 9.6875 19.683594 Z M 9.6875 19.683594 "/>
<path style=" stroke:none;fill-rule:nonzero;fill:rgb(100%,76.078431%,31.372549%);fill-opacity:1;" d="M 11.882812 8.347656 C 11.882812 7.722656 11.554688 7.113281 10.976562 6.777344 L 5.722656 3.746094 C 4.855469 3.246094 3.746094 3.542969 3.246094 4.40625 C 2.746094 5.273438 3.042969 6.378906 3.910156 6.882812 L 9.164062 9.914062 C 10.03125 10.414062 11.136719 10.117188 11.636719 9.25 C 11.804688 8.964844 11.882812 8.65625 11.882812 8.347656 Z M 11.882812 8.347656 "/>
<path style=" stroke:none;fill-rule:nonzero;fill:rgb(100%,76.078431%,31.372549%);fill-opacity:1;" d="M 11.882812 31.015625 C 11.882812 30.710938 11.804688 30.398438 11.636719 30.113281 C 11.136719 29.246094 10.03125 28.949219 9.164062 29.449219 L 3.910156 32.484375 C 3.042969 32.984375 2.746094 34.089844 3.246094 34.957031 C 3.746094 35.824219 4.855469 36.121094 5.722656 35.621094 L 10.976562 32.585938 C 11.554688 32.25 11.882812 31.644531 11.882812 31.015625 Z M 11.882812 31.015625 "/>
<path style=" stroke:none;fill-rule:nonzero;fill:rgb(100%,95.294118%,74.901961%);fill-opacity:1;" d="M 16.96875 16.371094 C 16.875 16.371094 16.78125 16.355469 16.683594 16.324219 C 16.210938 16.167969 15.953125 15.65625 16.109375 15.183594 C 17.652344 10.507812 21.40625 6.941406 26.148438 5.644531 C 26.632812 5.515625 27.128906 5.796875 27.261719 6.28125 C 27.394531 6.761719 27.109375 7.261719 26.628906 7.390625 C 22.46875 8.527344 19.179688 11.652344 17.828125 15.75 C 17.703125 16.128906 17.347656 16.371094 16.96875 16.371094 Z M 16.96875 16.371094 "/>
</g>
</svg>
